<?xml version="1.0" encoding="utf-8"?>
<!-- Generator: Adobe Illustrator 20.1.0, SVG Export Plug-In . SVG Version: 6.00 Build 0)  -->
<svg version="1.1" id="Layer_1" xmlns="http://www.w3.org/2000/svg" xmlns:xlink="http://www.w3.org/1999/xlink" x="0px" y="0px"
	 viewBox="0 0 199 133" style="enable-background:new 0 0 199 133;" xml:space="preserve">
<style type="text/css">
	.st0{font-family:'Sacramento-Regular';}
	.st1{font-size:72px;}
	.st2{fill:#202020;}
</style>
<text transform="matrix(0.8844 0 0 1 0.5 93.7178)" class="st0 st1">Sinnang</text>
<text transform="matrix(1.1196 0 0 1 58.5 56.5)" class="st0 st1">Noi</text>
<g>
	<g>
		<g>
			<g>
				<g>
					<path class="st2" d="M66.8,62.8c-0.1,0.1,0,0.3,0.1,0.2l0.1-0.3L66.8,62.8z"/>
					<path class="st2" d="M67.9,63.4c0.2-0.2,0.4-0.4,0.3-0.7c-0.2,0.3-0.3,0.2-0.5,0.6c-0.2,0-0.3-0.1-0.3-0.2
						c-0.1,0.1-0.3-0.1-0.4,0.1c0.2,0.3,0.5,0.3,0.8,0.1C68,63.3,68,63.4,67.9,63.4z"/>
					<path class="st2" d="M85.2,64l-0.1,0C85.1,63.9,85.1,64,85.2,64z"/>
					<path class="st2" d="M95.8,64.1c-0.1,0-0.1,0-0.1,0.1C95.8,64.2,95.8,64.2,95.8,64.1z"/>
					<path class="st2" d="M97.6,64.5c0,0-0.1,0-0.1,0C97.6,64.5,97.6,64.5,97.6,64.5z"/>
					<path class="st2" d="M85.2,64l0.3,0.1C85.5,64,85.3,64,85.2,64z"/>
					<path class="st2" d="M70.3,62.6c-0.1,0-0.1,0-0.2,0.1C70.2,62.7,70.3,62.7,70.3,62.6C70.3,62.7,70.3,62.7,70.3,62.6z"/>
					<path class="st2" d="M80.5,64.2L80.5,64.2c-0.1,0-0.1,0.1-0.2,0.1L80.5,64.2z"/>
					<path class="st2" d="M76.9,64.3c0.1,0,0.1-0.3,0.1-0.4c0,0.1-0.1,0.2-0.2,0.2C76.8,64.1,76.8,64.2,76.9,64.3z"/>
					<path class="st2" d="M71.1,63.8l-0.1,0C71.1,63.8,71.1,63.8,71.1,63.8z"/>
					<path class="st2" d="M83,64.3c0,0,0,0.1,0,0.1C83.1,64.4,83.1,64.3,83,64.3z"/>
					<path class="st2" d="M183.9,62.2C183.9,62.2,183.9,62.2,183.9,62.2C183.9,62.2,184,62.2,183.9,62.2z"/>
					<path class="st2" d="M188.1,63.6L188.1,63.6c-0.1,0.1-0.1,0.1-0.1,0.2L188.1,63.6z"/>
					<path class="st2" d="M101,64.9C101,64.9,101,64.9,101,64.9C100.9,64.9,100.9,64.9,101,64.9z"/>
					<path class="st2" d="M131.6,64.7c-0.3-0.3,0.6-0.3,0-0.6C131.6,64.2,131.1,64.5,131.6,64.7z"/>
					<path class="st2" d="M70.4,62.7c0,0,0.1,0,0.1,0C70.5,62.7,70.5,62.7,70.4,62.7z"/>
					<path class="st2" d="M131.6,64.1C131.6,64.1,131.6,64.1,131.6,64.1L131.6,64.1C131.6,64,131.6,64.1,131.6,64.1z"/>
					<path class="st2" d="M108.6,64.7c0,0,0-0.1-0.1-0.1C108.6,64.6,108.6,64.6,108.6,64.7z"/>
					<path class="st2" d="M102.9,64.3l0.1,0C103,64.3,103,64.3,102.9,64.3z"/>
					<path class="st2" d="M111.6,64.3c0.1,0,0.1,0.1,0.2,0c0,0,0,0,0,0C111.8,64.3,111.7,64.3,111.6,64.3z"/>
					<path class="st2" d="M114.7,64.3C114.7,64.3,114.7,64.3,114.7,64.3c-0.1-0.1-0.1,0-0.2,0L114.7,64.3z"/>
					<path class="st2" d="M174.5,62.3c0.1,0.1,0.1,0.2,0.1,0.3C174.6,62.4,175.1,62.3,174.5,62.3z"/>
					<path class="st2" d="M70.3,62.8c0-0.1,0-0.1,0.1-0.1c0,0-0.1,0-0.1,0C70.3,62.7,70.3,62.8,70.3,62.8z"/>
					<path class="st2" d="M111.7,62.1l0.5,0C112.1,62.1,111.9,62.1,111.7,62.1z"/>
					<path class="st2" d="M152.4,62.4l0.1,0C152.4,62.3,152.4,62.3,152.4,62.4z"/>
					<path class="st2" d="M113.7,62.1c0.1,0.1,0.2,0.2,0.3,0.2c0,0,0,0,0.1-0.1L113.7,62.1z"/>
					<path class="st2" d="M174.7,62.6C174.7,62.6,174.7,62.6,174.7,62.6C174.7,62.6,174.7,62.6,174.7,62.6z"/>
					<path class="st2" d="M177.9,61.9c-0.5,0-0.2,0.4-0.3,0.6c-0.6,0.1-0.3-0.3-0.4-0.5c-0.3,0.1-0.6,0.4-0.9,0.4
						c0-0.1-0.1-0.1,0-0.2c-0.4,0.3-1.1,0-1.5,0.4c0,0,0-0.1-0.1-0.1c0.1,0.2,0.1,0.4,0.1,0.5c-0.2,0-0.4,0.2-0.5,0
						c0.1,0,0.1-0.1,0.2-0.2l-0.2,0.1c-0.2-0.3,0.3-0.1,0.3-0.4c-0.4,0.1-0.9,0.4-1.3,0.3c-0.1-0.3,0.8-0.1,0.3-0.4l0.5,0.1
						c-0.4-0.5,0.3,0,0-0.5c-0.7-0.1-0.7,0.2-1.4,0.1c-0.2,0.2,0,0.3-0.1,0.5c-0.9,0.3-0.7-0.9-1.4-0.4c-0.2,0.2-0.3,0.7-0.7,0.4
						l0.2-0.4c-0.6,0-0.4,0.6-1,0.3c0.1-0.2,0.5-0.1,0.4-0.2c-0.4-0.3-0.3,0.2-0.6,0.2l-0.1-0.3c-0.7,0.1-1.4,0.3-2.2,0.4
						c0-0.1,0.2-0.2,0-0.3c-1,0.2-2.1,0-3-0.2l-0.4,0.3c-0.1,0-0.2-0.1-0.1-0.2c-0.4-0.1,0,0.2-0.2,0.3c-0.2,0-0.3-0.2-0.1-0.3
						c-0.6,0.2-1.8,0.5-2.5,0.2l0.1-0.1c-0.5-0.1-0.6,0.6-1.1,0.3l0.1-0.1c-1.1-0.1-2.4,0.1-3.3-0.3c-0.2,0.4-1.1-0.2-1.2,0.4
						c-0.6-0.3-0.5-0.4-1.4-0.6c-0.2,0-0.4,0.4-0.7,0.4l0-0.3l-0.4,0.3l-0.2-0.4l-0.3,0.1c0.1,0,0.2,0.1,0.2,0.2
						c-0.4,0.1-1.1-0.2-1.1-0.4l-1,0.3c0-0.1,0.2-0.2,0.3-0.2c-0.6,0.3-0.1-0.3-0.6,0c0.1,0.1,0,0.2,0,0.2c-0.3-0.2-0.8-0.2-1.3-0.1
						l0.1-0.2c-0.8-0.1-1.6,0.1-2.5,0.1c0.3,0.1,0.2,0.5,0,0.5l-0.1-0.3c-0.2,0.2,0.3,0.1-0.1,0.4c-0.3,0-0.2-0.4,0-0.5l-0.4,0.1
						c0-0.1,0.1-0.1,0.1-0.3c-0.2,0.2-0.7-0.3-0.9,0l0-0.1c-0.9,0-1.3,0.1-2,0.1c0,0.3-0.3,0.2-0.5,0.4c-0.5-0.1-1.1-0.3-1.7-0.3
						c-0.4,0.1-0.1,0.2-0.3,0.4c0-0.3-0.7-0.2-0.3-0.4c-0.8,0-1,0.1-1.9,0.3c0.1,0.1,0.2,0.2,0.2,0.2c-0.2,0-0.4-0.1-0.4-0.2l0,0
						c-1.1,0.4-2.5-0.7-3.3-0.2l0,0l-0.9,0.3c-0.4,0,0.2-0.2-0.1-0.4c-1,0.4-1.5-0.1-2.3,0.2c-0.6-0.8-2.2,0.1-3-0.4l0,0.2
						c-0.2,0.2-0.3-0.1-0.4-0.1c0,0.1,0.2,0.2,0.1,0.3c-1.8,0.2-3.7-0.3-5.5-0.4c-0.7,0-0.4,0.9-1.2,0.5l0.2-0.3
						c-1.4,0.4-2.8,0-4.1,0.3c0.1-0.1,0.1-0.2,0.2-0.2c-0.3-0.2-1,0-1,0.2c-0.2,0,0-0.2-0.2-0.3c-0.3-0.1-0.7,0.3-0.9,0.1
						c0,0,0.1-0.1,0.1-0.1c-0.2,0.1-0.9,0-0.7,0.2c-0.5-0.1-1,0.1-1.4,0c-0.3,0.3-0.9-0.1-0.9,0.3c0-0.5-0.9-0.4-1.2-0.2
						c0.1-0.1-0.3-0.1-0.2-0.3c-0.4,0-0.7,0.1-0.6,0.3c-0.7-0.5-1.3,0.4-1.7-0.3c-1.1,0.2-2.1,0.4-3,0.5c0-0.5,1.1,0,1-0.5
						c-0.9,0.2-1.4,0.6-2.3,0.5c-0.2-0.1,0.1-0.2,0.2-0.3c-0.9,0.2-1.8,0-2.6,0.2c0,0,0.1-0.1,0.2-0.1c-0.2,0-0.4-0.1-0.4,0.1
						l0.2-0.1c0.3,0.3-0.6,0.6-0.7,0.8c0.3-0.6-0.8-0.1-0.4-0.9c-0.1,0-0.2,0.1-0.2,0.3c-0.2,0-0.2-0.1,0-0.3
						c-0.6,0.1-0.4,0.3-0.9,0.3c0-0.1,0.1-0.1,0.2-0.3c-0.3,0.2-0.5,0.4-1,0.3c0-0.1,0-0.1,0.1-0.1c-0.8,0-1.3,0.5-2.1,0.3
						c0.2-0.4-0.3-0.1-0.3-0.5l-0.4,0.1l0.2,0.2c-0.4,0-0.7,0.3-1.1,0.1l0.3-0.2l-0.7,0.1l0.4,0.1c-0.4,0.2,0,0.5-0.5,0.4
						c0.1,0-0.4,0-0.6-0.2c0,0,0,0,0,0c-0.2,0.1-0.4,0.2-0.7,0.2c-0.1-0.1,0.1-0.4,0-0.5C94,63,93.3,62.8,93,63.2
						c0.1-0.1,0.1-0.3,0.1-0.3l-0.2,0.3c-0.2-0.1-0.2-0.1-0.2-0.3c-0.5,0,0.2,0.5-0.5,0.3c0.1,0,0-0.1,0.1-0.1
						c-0.6-0.1-1.2,0.2-1.8,0c-0.2-0.4,0.5-0.1,0.3-0.4c-0.9,0.1-1.8,0.5-2.6,0.4l0.2,0c-0.1,0.5-0.6-0.3-1,0c0.1,0,0.1-0.3,0.1-0.2
						c-0.6-0.1-1.2,0.1-2,0.3l0.1-0.1c-0.3-0.1-0.9-0.1-1.2-0.1c-0.1,0.1-0.3,0.1-0.2,0.3c-1.1-0.8-2.1,0.4-3.1-0.2
						c0.1,0,0.3-0.1,0.2-0.1l-0.8,0.1c0.1,0.2,0.1,0.1,0.3,0.3c-0.1,0.1-0.3,0.2-0.6,0.2c0.4-0.2,0-0.4-0.2-0.5c0,0.1,0,0.1,0,0.2
						c-0.4-0.4-0.1,0.5-0.7,0.2l0-0.1c-0.2,0.1-0.4,0.2-0.7,0.2c-0.1-0.3,0.2-0.1,0.3-0.3c-0.3,0-0.7,0.5-1,0.2
						c0.1-0.1,0.4-0.1,0.5-0.1c-0.3-0.3-0.4-0.2-0.6-0.3l0,0l-0.6-0.1l0.1,0.1c-0.4,0.7-0.9,0.1-1.4,0.6c0.6-0.4,0.1-0.2,0.1-0.6
						c-0.1-0.1-0.4-0.2-0.3-0.3c-0.3,0.2-0.5-0.2-0.8,0.2c0-0.1-0.3,0-0.2-0.3c-0.4,0.1,0.1,0.2,0.1,0.3c-0.5,0.3-1.3-0.4-2.1,0.1
						c-0.7,0.2-0.8,0.5-1.4,0.7c-0.2-0.2,0.2-0.4,0.2-0.4c-0.3-0.1-0.6-0.1-0.9,0c0.1-0.1,0-0.2-0.1-0.3c-0.3,0-0.2,0.4-0.5,0.2
						c0.1-0.1,0.1-0.3,0.3-0.4c-0.3,0.1-0.6,0.3-0.9,0.4c-0.1-0.2,0.2-0.3,0.3-0.4c-0.4,0.1-0.9,0.2-1,0.4l0.2,0.1
						c-0.1,0-0.1-0.2,0-0.3c0.3-0.2,0.4,0.1,0.5,0.2L69,63.2c0.2,0.6,0.9-0.1,1.4-0.1l-0.2,0.4l0.5-0.3c0.1,0.1,0.2,0.3-0.1,0.4
						c0.3,0.2,0.3-0.1,0.6,0.1c0,0,0,0.1,0,0.1l0.3-0.1c-0.1,0.1,0.1,0.3-0.1,0.2c0.6,0.2,0.9-0.3,1.1,0l0,0
						c0.8-0.1,0.1-0.3,0.7-0.7l0.4,0.8l0.1-0.3c0.1,0,0.2,0,0.2,0.2c0.3-0.2-0.1-0.1,0.1-0.3c0.4,0.3,1.1-0.1,1.2,0.4
						c0.1-0.2-0.4-0.2,0-0.3c0.1,0.5,0.5-0.1,0.8,0.2c-0.1,0.3-0.4,0.1-0.1,0.4c0.2-0.5,0.7,0.1,1,0c0-0.4,0.7-0.2,1.2-0.3
						c0,0.1,1,0.2,1.4,0.3l0,0.1c0.1-0.4,0.6-0.3,0.9-0.4c0,0.2-0.1,0.3-0.3,0.4l0.3,0c0.1-0.1,0.2-0.2,0.4-0.2l-0.1,0.3
						c0.4,0,0.9-0.3,1.5-0.1c0-0.3-0.5-0.7,0.1-0.9c0,0.1,0,0.4-0.1,0.4c0.1,0,0.2-0.1,0.3-0.1l-0.2,0.2c0.3,0.1,0.1-0.2,0.3-0.2
						c0,0.2,0.2,0.1,0.1,0.3c-0.1,0-0.2-0.1-0.3,0c0.2,0,0.5,0.2,0.6,0.3c0-0.1,0-0.3,0.2-0.3c0.4,0,0.2,0.2,0.4,0.3
						c0.1-0.1,0.4,0,0.4-0.3c0.1,0,0.2,0.1,0.2,0.2c0.2-0.1,1.1,0,0.8-0.4l-0.1,0c0,0,0,0,0,0c0,0,0,0,0,0h0c0.7-0.3,1.6,0.2,2.3,0
						l0,0.1c0.4-0.1,1-0.1,1.3-0.3c0.1,0,0.3,0.2,0.3,0.3c0.3-0.1,0.4-0.2,0.9,0c-0.3,0.2,0.1,0.2-0.3,0.1c0.4,0.1,0.5,0.2,1,0
						c-0.2,0.3,0.3,0.3,0.5,0.2l-0.3-0.2c0.2,0,0.4,0,0.7,0l-0.1,0.3c0.9,0.4,1.6-0.7,2.3,0c0.2-0.2-0.5-0.2-0.3-0.4
						c0.4,0,0.8,0.5,1,0.5c0.6,0.2,0.5-0.5,1.1-0.4c-0.1-0.1-0.1-0.4,0.3-0.5c0.4,0,0.5,0.5,0.2,0.6c-0.1,0-0.1,0-0.1-0.1
						c-0.1,0-0.3,0.1-0.1,0.2l0.1-0.1c0.2,0.1,0.8,0.1,0.6,0.3c0.3-0.1,0.1-0.2-0.1-0.3c0.5,0.2,0.8,0,1.4,0.1
						c-0.1-0.1-0.2-0.2-0.1-0.2c0.8,0.1,0.4-0.2,0.9-0.3c0.3,0.2-0.1,0.4,0.4,0.3c0.3,0.1,0.1,0.3-0.1,0.4c0.5-0.2,0.9,0.2,1.2,0.2
						L99.7,65c0.2-0.1,0.3-0.1,0.4-0.1l-0.2-0.2c0.2,0,0.3,0,0.3,0.1c0.2-0.2-0.1-0.4,0.2-0.6c0.2,0.1,0.6-0.1,0.7,0.2
						c-0.6-0.1,0.1,0.3-0.5,0.4c0.1,0,0.2,0,0.4,0c0,0,0,0.1-0.1,0.1c0.6,0.3,0.3-0.4,0.9-0.3c-0.1,0.2,0.1,0.3,0.3,0.3
						c-0.3,0-0.1-0.3,0.1-0.4c0.4,0.1,0.4-0.1,0.7-0.1l-0.2-0.1c0.1-0.2,0.3-0.2,0.6-0.2c0,0.1-0.3,0.1-0.2,0.2
						c0.3-0.3,0.7,0.3,1.2,0.1c0.2,0.1,0,0.3,0.2,0.4c0.5-0.2,0.5,0.2,1.1,0.1c-0.2-0.2-0.2-0.2,0.2-0.4l-0.9,0.2l0.6-0.3
						c-0.3,0-0.5,0.1-0.7,0.1c0.3-0.2,0.2-0.1,0.1-0.3c0.4,0.4,0.7-0.2,1.1,0l0,0.6c0.6,0.3,1.1-0.3,1.9-0.2l-0.3-0.1
						c0.1-0.2,0.5,0,0.8-0.1c0,0.2,0.1,0.3,0.2,0.4c0-0.1,0.6,0,0.7-0.4l0.4,0.3c0.6,0.1,0.7-0.6,1.4-0.5c-0.2,0.2,0.1,0.4-0.3,0.5
						c0.2,0,0.4,0,0.4-0.1c0.1,0.1,0.6-0.3,0.8-0.1c0.1-0.1,0.1-0.3,0.3-0.3c0,0,0,0.1,0,0.1c0-0.1,0.4-0.1,0.2-0.4
						c0.6,0.6,1.8,0,2.3,0.5c0.5-0.1,1-0.1,1.4-0.1c0,0.1,0,0.1-0.1,0.1c0.6,0.2,0.3-0.6,1-0.4c0.3,0.3-0.3,0.2-0.1,0.3
						c0.1,0.6,0.8-0.1,1.2,0.3l-0.1,0c0.3,0.2,0.8-0.2,1.4-0.2c0,0,0,0.1,0,0.1c0.4-0.3,1.1-0.4,1.6-0.5c-0.2,0.3-0.2,0.1-0.1,0.4
						c0.2,0-0.1-0.4,0.4-0.5c0.2,0.1,0.5,0.3,0.5,0.5l-0.4,0c0.2,0.4,0.6,0,0.8,0l0,0.2c0.7-0.1,0.7-0.4,1.4-0.4l-0.1-0.1
						c0.4-0.4,0.3,0.2,0.7-0.1l0.1,0.4c0.3-0.1,0.9-0.4,1.4-0.5c-0.3,0.3-0.8,0.4-1.2,0.6c0.3,0,0.9,0,1-0.2c-0.1,0-0.2,0.1-0.3,0.1
						c0.3-0.3,0.7-0.5,1.3-0.5c-0.1,0.8,1.3,0.2,1.7,0.8c0.9-0.3,1.8,0.1,2.9,0.1c-0.4-0.6,0.3,0,0.2-0.6c0.2,0,0.3,0,0.4,0l0.8,0.4
						c0.2,0.2-0.2,0.1-0.2,0.3c0.5,0,0.2,0.3,0.6,0.4c-0.1-0.2,0.2-0.3,0.5-0.2l-0.4-0.3c0.8-0.3,0.7,0.5,1.4,0.2L134,65
						c0.4-0.1,1.5,0,1.8-0.5c0.1,0.1,0.2,0.2,0,0.3c0.9,0.1,2.1-0.5,2.8-0.2l-0.1,0.1c0.2,0,0.3-0.3,0.5-0.1c0,0.1-0.1,0.1,0,0.2
						c0.1-0.1,0.5-0.3,0.7-0.2l-0.2,0.2c0.9,0.2,1.4-0.4,2.2-0.5c0,0.4,0.7,0.6,1.1,0.7l0,0.1c1.1,0.1,1.8-0.4,2.8-0.5
						c0.6,0.5,2.1,0.2,3.1,0.5c-0.2-0.1,0-0.3,0.2-0.4c0.2,0.1,0.6-0.3,0.6,0.1l-0.1,0c0.2,0.4,0.6,0.3,1,0.3l0.1-0.5
						c1,0.8,2.5-0.3,3.1,0.4c0.2-0.1,0.5-0.1,0.8-0.3l0,0.3c0.6,0.1,1,0.1,1.8,0l-0.2,0.2c0.5,0,0.6-0.8,1-0.8l0.1,0.4
						c0.8,0,1.6,0.4,2.4,0c0,0.1,0,0.2-0.2,0.2c0.4,0,1.4,0.3,1.3-0.3c0,0.4,0.8,0,1.2-0.1l-0.1,0.3c0.4-0.4,0.4-0.5,0.9-0.6
						c0.1,0,0.1,0.2-0.1,0.2c0.4,0.1,0.3-0.3,0.8-0.1l-0.2,0.2c0.4,0,0.4-0.1,0.6-0.3c0.3-0.1,0.8,0.1,0.8,0.3
						c0.1-0.2,0.3-0.4,0.5-0.3c0,0.1-0.1,0.2-0.1,0.2c0.7,0.2,1-0.3,1.5-0.1c0,0.1,0,0.1,0.1,0.2c-0.5,0-1,0-0.9,0
						c0,0.3,0.4,0.3,0.1,0.7c0.4-0.2,1-0.6,1.4-0.5c0,0,0,0,0.1,0.1l0,0c0.1,0,0.2,0,0.3,0c0.1,0,0.2,0.1,0.4,0.1
						c0.1,0.2,0.5,0.1,0.7,0.1c0-0.3,0.3-0.2,0-0.5c0,0,0,0-0.2,0c0,0-0.1,0-0.1,0c0,0,0,0,0,0c-0.1,0-0.3,0-0.5,0
						c0.2-0.1,0.4-0.3,0.6-0.1c0.1-0.2,0.2-0.4,0.3-0.5c0.3,0.4,0.9,0.6,1,0.8c0.7-0.2,1.6-0.1,2-0.6c0.2-0.1,0.2,0.2,0.3,0.2
						c-0.1,0.1-0.2,0-0.3,0.1c0.4-0.1,1.1-0.1,1.2-0.4c0.5,0.2-0.3,0.3,0.4,0.3l-0.1,0.1c1.3,0.6,2.1-0.9,3.5-0.2
						c-0.1,0-0.1-0.1-0.2-0.1c1.6,0.3,3.4-0.3,5,0.2c0.5,0.1,0.5-0.1,0.8-0.3l0.1,0.3l0.5-0.3c0.7-0.3,1.2,0.7,2,0.3l-0.1-0.2
						c0.3,0,1-0.1,0.9,0.1c0,0,0.1-0.2,0.2-0.1l0,0.2l0.8-0.3c0.6,0.1-0.1,0.6,0.8,0.7c0.3-0.1,0.9-0.5,0.8-0.6
						c-0.1,0-0.3-0.1-0.3-0.3l0.3-0.1c0.1-0.5,0.3-0.9-0.4-1.3l-0.5,0.3l-0.2-0.2l0.4,0c-0.2-0.2-0.4,0-0.6,0.1
						c0-0.1-0.1-0.2-0.2-0.2l-0.5,0.4c-0.1-0.2,0.2-0.4-0.1-0.5c-0.2,0.2,0.2,0.4-0.2,0.5c-0.2-0.2-0.2-0.4-0.4-0.2
						c0-0.1,0-0.2,0.1-0.2c-0.2,0.1-0.7,0.1-0.8,0.3c-0.2-0.3-0.8,0.1-0.8-0.4c-0.1,0.1-0.4,0.3-0.7,0.4c0.4-0.5-0.9,0-0.7-0.6
						c-0.3,0.5-1.1,0.2-1.7,0.5c0,0,0.1-0.1,0.1-0.1c-0.3,0-0.4-0.2-0.6-0.3c0,0.4-0.5,0.5-0.8,0.7c-0.4-0.4,0.2-0.5,0.1-0.8
						c0,0.3-0.7,0.3-0.5,0.6c-0.3-0.2-0.2-0.1-0.4-0.4c-0.1,0.5-0.3,0.1-0.5,0.4c-0.4-0.2-0.1-0.5-0.6-0.3
						C177.5,62.1,177.9,61.9,177.9,61.9z M167,62.8C167,62.7,167,62.7,167,62.8c0.1,0,0.2,0,0.2,0C167.2,62.7,167.1,62.7,167,62.8z
						 M166.1,62.8c0.1,0,0.3,0,0.4,0c0,0.1,0,0.2-0.1,0.2C166.4,62.9,166.2,62.8,166.1,62.8z M168,64.7c-0.1,0-0.2,0-0.2-0.1
						c0.1,0,0.1,0,0.3,0c0,0,0,0,0,0C168,64.6,168,64.7,168,64.7z"/>
					<path class="st2" d="M168.3,64.3C168.3,64.3,168.3,64.3,168.3,64.3C168.3,64.3,168.3,64.3,168.3,64.3
						C168.2,64.3,168.2,64.3,168.3,64.3C168.2,64.3,168.2,64.3,168.3,64.3z"/>
					<path class="st2" d="M85,63.9L85,63.9C85,63.9,85,63.9,85,63.9C85,63.9,85,63.9,85,63.9z"/>
					<polygon class="st2" points="153.4,62.2 153.4,62.3 153.5,62.2 					"/>
					<path class="st2" d="M80,63C80,62.9,79.9,62.9,80,63C79.9,62.9,79.9,62.9,80,63z"/>
					<path class="st2" d="M77.8,62.9l-0.3-0.1C77.6,62.8,77.7,62.9,77.8,62.9z"/>
					<path class="st2" d="M76.1,62.8c0,0,0,0.1,0,0.1c0,0,0,0,0,0L76.1,62.8z"/>
					<path class="st2" d="M102.8,62.4C102.8,62.4,102.9,62.4,102.8,62.4C103,62.4,102.9,62.4,102.8,62.4z"/>
					<path class="st2" d="M94.9,63.1c0.1-0.1,0.2-0.1,0.3-0.1C95,62.9,94.9,62.9,94.9,63.1z"/>
					<path class="st2" d="M111.7,62.1C111.7,62.1,111.7,62.1,111.7,62.1C111.7,62.1,111.7,62.1,111.7,62.1L111.7,62.1z"/>
					<path class="st2" d="M95.5,62.9c-0.1-0.1-0.3,0-0.4,0C95.2,63,95.4,63,95.5,62.9z"/>
					<path class="st2" d="M68.8,62.6L68.8,62.6C68.7,62.6,68.7,62.6,68.8,62.6L68.8,62.6z"/>
					<path class="st2" d="M68.7,62.7L68.7,62.7C68.7,62.7,68.7,62.7,68.7,62.7z"/>
					<path class="st2" d="M68.5,62.8l0.2-0.1C68.6,62.7,68.5,62.7,68.5,62.8z"/>
					<path class="st2" d="M71,62.8l0-0.1C71.1,62.7,71.1,62.7,71,62.8z"/>
					<path class="st2" d="M71.7,62.7c-0.2,0-0.4-0.2-0.6-0.2l0,0.1C71.2,62.5,71.6,62.9,71.7,62.7z"/>
					<path class="st2" d="M74.5,64L74,63.9c0.1,0.1,0.2,0.3,0,0.3C74.7,64.5,73.8,63.9,74.5,64z"/>
					<path class="st2" d="M76.3,64.1c-0.3,0.1,0,0.2,0,0.2C76.5,64.3,76.5,64.2,76.3,64.1z"/>
					<path class="st2" d="M89,64.1l0,0.3C89.2,64.4,89,64.3,89,64.1z"/>
					<polygon class="st2" points="91.4,62.8 91.2,62.7 91.1,62.9 					"/>
					<polygon class="st2" points="92.8,64.6 92.7,64.7 93.1,64.6 					"/>
					<path class="st2" d="M114.2,64.6l-0.1-0.3C113.9,64.3,113.9,64.6,114.2,64.6z"/>
					<path class="st2" d="M123.4,64.2c0.1,0.2,0.4,0.3,0.5,0.1C123.7,64.3,123.5,64.2,123.4,64.2z"/>
					<polygon class="st2" points="150.9,64.7 150.8,64.8 151.1,64.8 					"/>
				</g>
			</g>
		</g>
	</g>
</g>
</svg>
